<svg id="visual" viewBox="0 0 900 600" width="900" height="600" xmlns="http://www.w3.org/2000/svg" xmlns:xlink="http://www.w3.org/1999/xlink" version="1.1"><rect x="0" y="0" width="900" height="600" fill="#0f172a"></rect><path d="M0 226L37.5 253.7C75 281.3 150 336.7 225 377.8C300 419 375 446 450 411.5C525 377 600 281 675 268.2C750 255.3 825 325.7 862.5 360.8L900 396L900 601L862.5 601C825 601 750 601 675 601C600 601 525 601 450 601C375 601 300 601 225 601C150 601 75 601 37.5 601L0 601Z" fill="#030712" stroke-linecap="round" stroke-linejoin="miter"></path></svg>