<svg id="visual" viewBox="0 0 900 600" width="900" height="600" xmlns="http://www.w3.org/2000/svg" xmlns:xlink="http://www.w3.org/1999/xlink" version="1.1"><rect x="0" y="0" width="900" height="600" fill="#164e63"></rect><path d="M0 388L37.5 404.7C75 421.3 150 454.7 225 428.2C300 401.7 375 315.3 450 271.8C525 228.3 600 227.7 675 278.2C750 328.7 825 430.3 862.5 481.2L900 532L900 601L862.5 601C825 601 750 601 675 601C600 601 525 601 450 601C375 601 300 601 225 601C150 601 75 601 37.5 601L0 601Z" fill="#155e75" stroke-linecap="round" stroke-linejoin="miter"></path></svg>