<?xml version="1.0" encoding="utf-8"?>
<!-- Generator: Adobe Illustrator 24.1.2, SVG Export Plug-In . SVG Version: 6.00 Build 0)  -->
<svg version="1.1" id="Layer_1" xmlns="http://www.w3.org/2000/svg" xmlns:xlink="http://www.w3.org/1999/xlink" x="0px" y="0px"
	 viewBox="0 0 612 792" style="enable-background:new 0 0 612 792;" xml:space="preserve">
<style type="text/css">
	.st0{fill:#4F2102;}
	.st1{fill:#203143;stroke:#000000;stroke-width:4;stroke-miterlimit:10;}
	.st2{fill:#D1B2A3;}
	.st3{fill:#213046;stroke:#000000;stroke-miterlimit:10;}
	.st4{fill:none;}
	.st5{fill:none;stroke:#000000;stroke-miterlimit:10;}
	.st6{fill:#142235;}
	.st7{fill:#E0C2B0;}
	.st8{stroke:#000000;stroke-miterlimit:10;}
	.st9{fill:#203143;stroke:#000000;stroke-width:2;stroke-miterlimit:10;}
	.st10{fill:#D1B2A3;stroke:#000000;stroke-miterlimit:10;}
	.st11{fill:#D1B2A3;stroke:#000000;stroke-width:2;stroke-miterlimit:10;}
	.st12{fill:#EAC1C0;}
	.st13{fill:#DDD5D3;}
	.st14{fill:#CC254D;}
	.st15{fill:#4C2305;stroke:#000000;stroke-miterlimit:10;}
	.st16{fill:none;stroke:#4F2102;stroke-width:12;stroke-miterlimit:10;}
	.st17{fill:none;stroke:#000000;stroke-width:2;stroke-miterlimit:10;}
	.st18{fill:#D8AEA4;}
	.st19{fill:#4C2305;stroke:#000000;stroke-width:2;stroke-miterlimit:10;}
	.st20{fill:#E391A1;}
	.st21{fill:#E8BAC5;}
	.st22{fill:#231F20;stroke:#231F20;stroke-miterlimit:10;}
	.st23{fill:#ABCCEA;}
	.st24{fill:none;stroke:#231F20;stroke-miterlimit:10;}
	.st25{fill:#44250C;stroke:#231F20;stroke-miterlimit:10;}
	.st26{fill:none;stroke:#000000;stroke-width:4;stroke-miterlimit:10;}
</style>
<g id="Layer_1_1_">
	
		<image style="overflow:visible;enable-background:new    ;" width="902" height="1600" xlink:href="14A1F56E.jpeg"  transform="matrix(0.6785 0 0 0.495 0 0)">
	</image>
</g>
<g id="hair">
	<path class="st0" d="M338.4,262.5c25.1,7.9,26.3,8.2,28.2,10.5c9.7,11.8-0.6,30.8,7.1,35.3c5.1,3,13.7-2.9,14.8-3.7
		c18.7-13.3,23.7-53.7,7.9-77.8c-11.5-17.6-25.9-14.1-73.9-31.9c-61.7-23-64.9-39-101.5-41.7c-35.3-2.6-75,9-79.4,27.7
		c-3.4,14.6,15.9,29.3,10,37.4c-5.6,7.8-25-3-34.8,5.8c-9.3,8.4-10.2,29.3-1.6,35.9c9.6,7.4,24.1-8.6,65.4-19.5
		c18.6-4.9,35-9.3,56.4-6.9c15.5,1.8,32.1,6.9,49,12.1c5.9,1.8,7.9,2.6,24.8,7.9C320.1,256.6,329.2,259.6,338.4,262.5z"/>
</g>
<g id="face">
</g>
<g id="hair2">
</g>
<g id="Chin_Shadow">
</g>
<g id="Layer_18">
</g>
<g id="shirt">
	<path class="st1" d="M404.3,442.6c6.3,1.1,9.8,1.3,15.3,3.2c3.5,1.2,5.8,2.4,6.7,2.8c10.9,5.2,27.7,2.6,35,2.2
		c15.8-0.9,18.1,6.3,42.7,13.5c32.1,9.3,38.6,0,57,7.1c29.9,11.7,41.9,48.1,47.5,64.9c14.3,43.5-1,57.1,3.6,104.4
		c8,83.4,62.7,115.7,43.9,154.8c-3.5,7.3-9.8,19.4-44.3,32.2C497,870,337.4,853.5,337.4,853.5c-130.9-13.5-115.8-27.3-199.4-28.5
		c-96.6-1.3-145,16.3-165-11.9c-23.7-33.3,33-73.7,15-151.9c-11.4-49.5-44.1-76.7-28.9-106.9c5.9-11.7,12-10,35.3-40.3
		c14.8-19.2,17.3-26.4,28.5-34.8c9.3-7.1,16.9-9.1,44.3-15.8c70.9-17.3,89.2-20.1,106.4-15.8c3.1,0.8,25.1,6.5,24.9,7.1
		c0,0,0,0-0.1,0c-1.4,0.4-6.1-1.3-7-1.6c-3.2-0.9-6.9,1.8-10.5,5.3c-10.5,9.7-19.7,23.6-22.3,27.5c0,0-14.9,22.5-11.9,29.7
		c0.1,0.1,0.1,0.3,0.1,0.3c1.4,3,3.9,5.1,5.8,6c3.8,1.9,7.8,0.5,11.5-0.8c2.4-0.8,2.2-1.1,9.5-5.1c8.2-4.5,10.2-5.2,11.5-5.5
		c1.3-0.4,2.3-0.5,3.1-0.6c2.6-0.3,3.4-0.3,3.4-0.5c0.5-1.4-31.2-11.9-30.4-16.1c0.6-2.9,27-6.1,27-6.1c2.8-13.4,8-21.8,11.5-26.5
		c34.8-46.8,128.8-31.9,154.4-27.8c1.8,0.3,22.4,3.6,37.6,7C397.7,441.2,399.3,441.7,404.3,442.6z"/>
	<path class="st2" d="M-44.6,567c4.4,1.1,3.9,5.6,13.7,16.3c7.7,8.4,10.8,8.6,18.2,16.6C-8,605-1.7,613,0,617.7
		c10,27.2-73.5,101.8-105.8,83.9c-13-7.2-15.5-28.1-14.5-39.8c1.4-16.9,10.3-19.5,41.9-60.9C-61.7,579-52.9,564.9-44.6,567z"/>
	<path class="st3" d="M230.6,552.8c9.6-22.1,15-25.7,19-27.3c11.6-4.7,18.8,4.4,33.6-0.8c11.3-4,12-11,23-12.7
		c9.7-1.5,20.8,2.2,21.4,6.7c0.7,5.3-12.9,11.3-17,13c-14,6.2-19.8,3.2-28.5,9.1c-4.7,3.2-5,5.3-13.5,18.2
		c-16.8,25.4-19.5,22.7-23.3,33.2c-6.3,17.3-0.3,28.5-7.5,32.8c-5.2,3.1-14.4,0.9-19.4-4.3C206.5,608.5,218.8,580.2,230.6,552.8z"/>
	<path class="st3" d="M170.9,522.4c14.1,7.4,20.2,4.7,26.5,9.1c5.9,4.1,7.2,13.3,9.9,31.7c1.5,10,1.4,17.9,1.2,33.6
		c-0.2,18.7-1.6,22.8-4.8,25.7c-1.8,1.7-5.1,3.8-6.7,8.3c-0.4,1-1.7,4.8-0.4,7.5c3.1,6.7,22.1,8.8,31.3,0c5.6-5.5,5.8-13.3,5.9-23.3
		c0.2-10.8-1.9-14.3-5.1-31.7c-4.3-23-2.4-26.1-6.7-36.4c-4.6-11.1-11.1-18-15.8-23c-8.6-9.1-16.2-17.3-26.5-17
		c-7.7,0.2-15.9,5-15.8,9.1C163.8,517.7,165.1,519.4,170.9,522.4z"/>
	<path class="st4" d="M501.6,476.1"/>
	<path class="st3" d="M356.8,533.8c22.9-11.2,35.6-36.9,36.4-38.5c6.8-14.2,16.7-34.8,7.9-48.5c-5.4-8.5-11.7-4.5-26.9-18.5
		c-1.5-1.4-7.6-7.1-16.9-9.5c-5.1-1.3-6.4-0.4-6.9,0c-3,2.9,2.9,11.1,4.2,20c1.7,11.3-4.2,20.6-11.1,31.1
		c-19.1,29.3-44.3,40.1-41.7,45.9c1.3,2.8,7-0.8,16.9,2.6c14.5,5,17.6,17.9,29,17.9C349.6,536.5,352,536.2,356.8,533.8z"/>
	<path class="st3" d="M258.3,535c-2.6,0.7-5.6,2.8-5.9,5.7c-0.4,4.2,5,8.9,10,7.9c3.8-0.7,7.2-4.6,6.6-8.3
		C268.3,536.1,262.5,534,258.3,535z"/>
	<path class="st3" d="M220.7,587.9c-2.5,0.5-4.5,3.6-3.4,6.1c1.1,2.5,4.8,2.9,6.6,1.6c1.1-0.8,1.4-2.3,1.6-2.9
		c0.2-0.7,0.4-1.7,0-2.6C224.8,588.4,222.6,587.5,220.7,587.9z"/>
	<path class="st3" d="M183.8,450.5c-14.8,9.2-24.5,19-30.3,26c-6.4,7.5-19.8,23.5-15,32c1.1,1.9,3.2,3.8,5.5,4
		c4.6,0.4,8.2-5.5,13.4-13.5c13.1-19.8,19.7-29.7,25.7-36c4.5-4.7,9.5-9.1,8.3-11.5C190.6,449.9,186.9,450.1,183.8,450.5z"/>
	<path class="st3" d="M241.7,507.3"/>
	<path class="st5" d="M333.1,545.5c-45.4,62.1-70.1,83.5-84.4,91.3c-7,3.8-22.9,10.5-26.4,24.3c-1.4,5.5-1.1,13.3-6.9,21.6
		c-2.4,3.5-5,5.9-6.9,7.4"/>
	<path class="st5" d="M434.9,472.7c-29.5,30.3-46.7,58.5-57,78.6c-10.8,21.2-6.9,19.7-20,45.9c-19.5,38.7-35.3,56.3-29,75.4
		c2.9,8.7,9.1,14.4,13.2,17.4"/>
	<path class="st5" d="M421.2,464.2c-8,7.6-9,15.2-10.5,14.8c-2.1-0.5-3.8-16.1,4.8-22.1c5.8-4.1,14.7-2.6,15.3-0.5
		C431.1,457.9,426.6,459,421.2,464.2z"/>
	<path class="st5" d="M363.7,538.1c-15.1,22.4-30.8,47.9-45.9,76.5c-12.6,23.8-23.2,46.7-32.2,68"/>
	<path class="st5" d="M425.9,547.6c-13.9,28.3-27.9,62.4-39,101.8c-5.7,20.2-10,39.5-13.2,57.5"/>
	<path class="st5" d="M530.9,505.9c-42.2,48.8-61.2,92.1-70.7,122.9c-8,26-13.7,57.4-34.8,101.3c-10.6,22-21.2,39.2-28.5,50.1"/>
	<path class="st5" d="M539.3,591.9c-21.3,19.7-42.5,39.4-63.8,59.1"/>
	<path class="st5" d="M597.9,611.4c-28.1,6-56.3,12-84.4,17.9"/>
	<path class="st5" d="M475.5,695.3c3.3-4.9,6.7-9.8,10-14.8"/>
	<path class="st6" d="M615.8,667.3c-7.6-5.3-21-10.8-71.7,0.5c0,0-50.1,11.2-67.5,32.2c-1.2,1.4-4.2,5-3.2,8.4
		c1,3.3,5.2,4.6,5.8,4.8c8.7,2.7,18.2-8.1,26.9-14.2c8.4-6,22.3-7.7,49.6-10.8c44.9-5.1,67.3-2.2,69.1-9.3
		C625.9,674.4,618,668.8,615.8,667.3z"/>
	<path class="st5" d="M66.4,484.8c-12,14.5-20.4,27.9-26.1,38c-5.5,9.8-9.1,16.3-12.7,26.1c-5.2,14.5-4.2,19.8-11.1,41.1
		c-1,3-2.8,8.1-6.3,18.2C6,620.2,2.5,630,0,636.7"/>
	<path class="st5" d="M5.5,542.5c3.4,3.9,8.4,10.8,11.1,20.6c1.3,4.9,0.4,13.7-1.3,31.3c-0.1,1.4-0.4,3.3-1.4,3.7
		c-2.8,1-9-8.9-13.8-17.6"/>
	<path class="st5" d="M170.1,533.8c4.1,25.6,7.2,53.1,8.7,82.3c0.4,7.8,0.6,15.4,0.8,23"/>
	<path class="st3" d="M168.9,467.5c-0.4,0.4-0.4,0.4-0.7,0.7C158.1,478.5,132,511,139,522.5c7.3,12,55.5,9.8,69.8-17.9
		c9.9-19.3-1.2-41.8-4-47.3c-0.9-1.7-9.1-18.5-16-17.3C183.5,440.9,184,452,168.9,467.5z"/>
	<path class="st3" d="M347.3,418.3c2.8,7.5,5.7,15,8.5,22.5"/>
	<path class="st7" d="M343.4,415.6c11,12.4,12.9,23.4,13.3,28.9c1.9,27.6-25.4,57.9-69,70"/>
	<path class="st8" d="M343.3,418.4c-1.7,1.4,4,8.5,5.1,17.6c3.2,24.7-28,52.7-37.9,61.7c-7.9,7.1-14.7,11.8-13.6,14.8
		c1.2,3.5,12.7,3,21.1,0c30.1-11,49.5-66,36-86.2C350.9,421.6,344.9,417.1,343.3,418.4z"/>
	<path class="st8" d="M380.8,404.5"/>
	<path class="st9" d="M456.5,695.3c1.6,29,3.2,58,4.8,87"/>
	<path class="st1" d="M602.1,469.8"/>
	<path class="st10" d="M508.5,697.4c-6.1,2.6-9.2,3.9-10.1,4.6c-21.9,15.1-13.9,80.8,12,129.5c29.3,55.2,92.9,109.5,138.1,94.8
		c16.2-5.3,28.8-19,31.7-22.2c2.2-2.4,24.5-27.5,24-60.1c-0.7-44.5-43.1-46.4-68-113.9c-8.1-21.9-9.3-37-24.1-46.3
		c-17-10.6-40-6-55.8-2.8C538.4,684.6,519.3,692.8,508.5,697.4z"/>
	<circle class="st3" cx="219.6" cy="591.2" r="0.4"/>
	<circle class="st3" cx="222.2" cy="591" r="0.2"/>
	<circle class="st3" cx="221" cy="593.9" r="0.3"/>
	<ellipse class="st3" cx="258.2" cy="539.1" rx="0.9" ry="0.4"/>
	<circle class="st3" cx="263.8" cy="538.8" r="0.7"/>
	<path class="st3" d="M262,542.1c0,0.2-0.4,0.3-0.9,0.3s-0.9-0.2-0.9-0.3s0.4-0.3,0.9-0.3S262,541.9,262,542.1z"/>
	<path class="st3" d="M211.2,540.6c0.9,2.9,1.8,5.7,2.6,8.6"/>
	<path class="st3" d="M215.1,563.3c0.8,5,1.5,10,2.2,15"/>
	<path class="st3" d="M240,565.1c-2.5,0.5-4.5,3.6-3.4,6.1c1.1,2.5,4.8,2.9,6.6,1.6c1.1-0.8,1.4-2.3,1.6-2.9c0.2-0.7,0.4-1.7,0-2.6
		C244.1,565.6,241.9,564.7,240,565.1z"/>
	<circle class="st3" cx="239.2" cy="567.9" r="0.4"/>
	<path class="st3" d="M242.4,568.3c0,0.5-0.4,0.9-0.9,0.9s-0.9-0.4-0.9-0.9s0.4-0.9,0.9-0.9S242.4,567.9,242.4,568.3z"/>
	<path class="st3" d="M74.3,635.1c-4.2,31.7-8.4,63.3-12.7,95"/>
	<path class="st3" d="M191.4,723.7"/>
</g>
<g id="neck">
	<path class="st11" d="M225.1,535.8c-1-2.7-2.9-7.6-7.5-11.5c-4.6-3.9-7.1-2.1-13.4-6.7c-4.1-3-6.6-6.2-7.5-7.5
		c-1.6-2.3-2.5-4.3-4.4-8.3c-2.8-6.1-3.6-9.9-4-12.3l0,0c-1.5-9,8.7-16.3,11.5-28.9c1.3-6.1-0.6-6.8,1.2-9.5c5-7.8,21.9-4,32.4-3.2
		c24.5,2.1,43.9-11.4,72.1-31c36.3-25.2,54.3-55.4,57.7-52.9c1.8,1.3-5.7,8.8-7.9,24.1c-2.4,16.7,2.6,35.2,2.6,49
		c0,3.1-0.2,7.4-1.6,12.4c-0.5,2-1.1,3.3-1.4,4.1c-3,7.9-4.2,15.3-5,18.4c-3.3,13.7-17.5,24.7-27.5,32.4c-4.4,3.4-9.2,6.8-16,10.4
		c-22.7,12-37.5-0.2-54.8,10.6c-15.4,9.6-20.1,29.3-23.6,27.8C225.9,552.5,228.8,545.7,225.1,535.8z"/>
	<path class="st2" d="M341.4,415.8"/>
	<path class="st11" d="M264.2,471"/>
	<path class="st11" d="M420.1,411.2"/>
	<path class="st11" d="M395.4,418.7"/>
</g>
<g id="Layer_19">
</g>
<g id="neck_lines">
</g>
<g id="ear">
	<path class="st11" d="M375,309.6c4.9-2.5,9.3-3.4,11.8-3.8c3,0.1,9.6,0.8,13.5,5.5c5.4,6.5,2,16.4-0.8,24.8
		c-1.2,3.5-6.8,20.1-21.4,28c-4.2,2.3-9.7,4-11.1,4.5c-7.2,2.3-10.8,2.9-13.7,3c-3.3,0.1-5,0.1-5.9-0.5
		C339.7,365.9,348,323.1,375,309.6z"/>
	<path class="st2" d="M388.2,312.8c2,1.5-0.7,6.3-0.8,12.1c-0.1,6.5,3.1,13.2,5.3,13.2c2.7-0.1,4.3-10.1,4.5-16.1
		c0.3-7.3-1.5-9.5-2.4-10.3c-1.6-1.6-4.4-2.8-6.9-2.1c-1.8,0.5-3.4,2-3.2,2.6C385,312.9,387,312,388.2,312.8z"/>
	<path class="st10" d="M373.4,323.1c8.8,0.3,15.6,4.6,17.1,10.3c0.3,1.2,0.6,3.3-0.3,6.1"/>
	<path class="st10" d="M371.4,327.6c0.3-2.1,1.1-6.4,4.4-10.3c2.9-3.4,9.1-8.5,14.8-6.6c5.4,1.7,7.3,8.6,7.6,10
		c4.4,15.7-14.1,32.3-16.1,34"/>
	<path class="st10" d="M355.2,359c1.7,0.1,3.3,0.2,5,0.3"/>
	<path class="st11" d="M349.4,375.3c0.3,6.8-0.5,17.4-7.6,25.2c-4.1,4.5-8.8,6.3-11.9,7.5c-13.8,5.5-26.6,13.2-40,19.8
		c-27.2,13.5-26.9,19-45.2,24.1c-12.8,3.6-22.9,3.6-26.4,3.6c-11.7-0.1-27.1-0.2-39.6-10.3c-9.1-7.4-13.9-17.9-20.8-33.5
		c-1.3-3-2.9-6.4-4.2-11.1c-2.3-8.3-1.5-12.5-7.9-26.1c-6.2-13.2-11.6-19.1-9.5-28c0.1-0.5,1.9-5.5,5.5-15.3
		c2.4-6.6,3.3-8.8,3.4-12.1c0.3-6.1-2-9.3-3.2-13.5c-2.3-8.2,1.4-13.5,8.2-31.4c8.5-22.6,5.4-21.8,10.3-30.3
		c8.5-14.9,21.1-22.8,25.6-25.6c22.4-13.6,45.7-10.4,92.3-4c29.3,4.1,42.5,10.1,47,12.1c11.8,5.3,29.1,13.4,40.9,31.9
		c0,0,4.1,6.5,6.9,14C386.5,308.9,352.5,370,349.4,375.3z"/>
	<path class="st10" d="M367.5,342c-1.5,1.8-3.8,3.3-3.4,5.1c0.3,1.4,2,2.2,3,2.6c4.1,1.8,11,1.6,13.7-2c4.9-6.6-6.5-20.9-9.4-20
		C369.4,328.3,372.5,336,367.5,342z"/>
	<path class="st2" d="M366.3,395.4"/>
</g>
<g id="face_reddening">
	<path class="st12" d="M239.7,325.9c24.2,3.8,54.9-8.9,64.1-0.9c5.9,5.1-0.5,15.7-5.5,20.9c-8.4,8.7-25.8,15.6-41.5,11.5
		c-21.4-5.5-27.1-28-21.4-31.3C236.8,325.4,238.8,325.8,239.7,325.9z"/>
	<path class="st13" d="M325.6,263.6c2.5,5,5.1,10.6,7.5,17c2.7,7.1,4.6,13.8,5.9,19.8c3.3,4.2,6.6,8.4,9.9,12.7
		c4-2.2,7.9-4.5,11.9-6.7c3,0.7,5.9,1.4,8.9,2.1l0,0c1.7-1.3,3.4-2.6,5.1-3.8c1.3-6.5,2.5-13.1,3.8-19.6c-3.3-6.6-6.6-13.2-9.9-19.8
		c-5.8-2.5-11.6-5-17.4-7.5c-6.7-0.8-13.5-1.6-20.2-2.4C329.3,258.1,327.4,260.9,325.6,263.6z"/>
	<path class="st12" d="M143.6,331.8c4-4.3,15.3-4,18.4-0.3c3,3.6-1.9,10.9-8.9,11.5c-3.4,0.3-7.3-1-9.4-3.4
		C141.4,337.1,141.6,333.9,143.6,331.8z"/>
</g>
<g id="chin">
</g>
<g id="inbetween_Lip">
	<polygon class="st14" points="179.3,391.2 213.3,389.8 219.5,391.2 213.9,395.6 183.1,396.9 178.4,391.2 	"/>
	<path class="st14" d="M190.3,388.1"/>
</g>
<g id="nose_area">
	<path class="st12" d="M221,348.4c1.6,1.7,3.5,4.2,3.2,7c-0.7,5.8-10.2,8.8-15.3,9.6c-8.5,1.4-21.1-0.5-29.3-8.8
		c-4.1-4.3-5.7-8.7-10-9c-3.2-0.2-6.6,1.9-7.4,4.5c-1.7,5.5,6.7,14.6,12.7,13.7c6.4-1,5.3-13.2,13.7-19.3
		C194.3,342.1,204,341.2,221,348.4z"/>
	<path class="st12" d="M183.9,300.8c-1.4,5.9-4.1,15.1-9.7,25.1c-7.5,13.5-14,17.5-12.7,23.9c1.8,8.3,14.9,13.7,25.5,13.5
		c11.2-0.3,23.8-6.5,28.7-18.4c6.1-14.7-3.6-28.1-8.8-35.3c-3-4.2-8.8-12.1-16.4-11.6C187.7,298.3,185.4,299.7,183.9,300.8z"/>
</g>
<g id="eye">
	<path class="st15" d="M257.6,298c1.1,2.1-0.7,4.9-0.9,5.2c-1.9,2.8-5.2,3.3-6.8,3.4c-1.2,0.1-5,0.6-6.8-1.6c-0.4-0.5-0.7-1.2-1-1.8
		c-0.1-0.2-0.2-0.5-0.2-0.6c-0.4-1-0.8-2.2-0.6-3.1c0.6-2.6,6.3-3.3,7.4-3.5C251.1,295.9,256.2,295.3,257.6,298z"/>
	<polyline class="st16" points="216,285.2 250.8,276.7 285,281 	"/>
	<polyline class="st16" points="172.1,291.5 143.2,291.5 135.9,301.2 	"/>
	<path class="st17" d="M228,300.2c3.6-2.5,10.1-6.1,19-7.5c14.2-2.2,25.3,3,29.3,5.1"/>
	<path class="st17" d="M229.8,305.6c-0.5-2.6,5.8-6.1,10.1-7.7c13.8-5.3,31-0.8,31.3,3.2c0.2,3.7-13.9,7.8-25.3,8.1
		C240.4,309.3,230.4,308.7,229.8,305.6z"/>
	<path class="st17" d="M152,307.8"/>
	<path class="st18" d="M185.4,301.2"/>
	<path class="st17" d="M155,315.3c0.2-1,1.7-7,7.3-9.9c5.7-3,13.3-1.5,18.4,3.9"/>
	<path class="st17" d="M180.2,304c-1.9-1.1-7-3.7-13.9-3.1c-8.2,0.7-13.4,5.5-14.8,6.9"/>
	<path class="st19" d="M160.5,308.2c-0.5,2.3,2.3,5.6,5.4,6c4.9,0.6,7.8-6.7,8.2-7.7c0.1-0.2,0.2-0.6,0.1-1
		c-0.5-1.6-4.4-1.8-6.8-1.5c-2.5,0.3-4,1.3-4.4,1.5C162,306.2,160.8,307,160.5,308.2z"/>
	<path class="st20" d="M167.9,399.7c0.6,1.4,2.4,5.3,6.5,7.5c2.1,1.2,5,1.3,10.7,1.4c14.4,0.3,16.2,0.4,19.8-0.2
		c3.2-0.5,5.6-0.9,8.7-2c7.8-2.8,16-9,15-12.2c-0.8-2.5-6.6-2.6-10.4-2.8c-10.1-0.3-16.6,3.2-25.3,3.5c-3.6,0.1-7.2-0.2-7.2-0.2
		c-0.5,0-2.3-0.2-4.8-0.6c-0.9-0.1-2.9-0.5-7.9-1.8c-4.7-1.2-5.3-1.4-5.9-1C165.4,392.8,167,397.7,167.9,399.7z"/>
	<path class="st21" d="M174.4,401.2c0.9,2.4,4.8,2.8,17.4,3.3c11.1,0.5,14.4,0.4,16.5-2.1c0.3-0.3,1.8-2.2,1.2-3.7
		c-0.9-2.2-5.6-1.7-17-1.7c-11.6,0-16.9-0.6-18.1,2.1C174,400,174.4,401,174.4,401.2z"/>
	<path class="st20" d="M165.5,390.2c0.3-0.6,2.9-6.5,7.4-6.9c3-0.2,3.7,2.3,7.4,2.6c3.4,0.4,5-1.5,8.6-2.8c5.1-1.9,9.6-1,14.8,0
		c7,1.3,10.1,3.9,17.7,6.5c0.6,0.2,2.6,0.9,5.1,2c2.8,1.2,3.1,1.3,3,1.5c-0.1,0.4-2.7,0.2-3.2,0.1c-4.2-0.3-6.8-1.3-8.7-1.8
		c-2.1-0.5-6.1,0-14.3,1c-3.2,0.4-6.8,1-8.3,1.2c-6.5,1-6.2,1.1-7.9,1.2c-6.4,0.4-7-1.8-11.7-1.2c-6,0.7-8.8,4.7-10.4,3.4
		C163.2,395.7,165.3,390.6,165.5,390.2z"/>
	<path class="st20" d="M164,395.9"/>
	<path class="st22" d="M187.4,354.8c2.2-1.2,6.2-2.9,11.3-2.6c4.2,0.3,9.6,1.9,9.6,3.7c0,1.5-3.7,3.5-6.5,2.6
		c-2.5-0.8-2.5-3.3-4.9-3.7c-2.1-0.4-3,1.3-5.8,1.2C189.5,355.9,188.2,355.3,187.4,354.8z"/>
	<path class="st22" d="M168.1,356.1c-0.6,1.1,4.4,6.5,7.4,5.3c0.7-0.3,1.5-1,1.4-1.9C176.8,357.1,168.8,354.9,168.1,356.1z"/>
	<circle class="st8" cx="250" cy="299.3" r="2.4"/>
	<circle class="st8" cx="167" cy="306.8" r="2.4"/>
</g>
<g id="white_of_eye">
	<ellipse class="st23" cx="248.1" cy="299.5" rx="1" ry="0.8"/>
	<ellipse class="st23" cx="166.1" cy="306.8" rx="1.5" ry="0.8"/>
</g>
<g id="nose">
</g>
<g id="nose_outline_andhair2">
	<path class="st24" d="M183,303.3c-2,12.2-6.3,20.1-9.8,25c-2.1,3-6.5,8.6-9.8,17.1c-1.6,4.3-2.7,8.6-0.5,11.6
		c0.8,1.1,1.9,1.7,2.6,2.1"/>
	<path class="st24" d="M217.8,343.2c2.7,4.9,4.3,9.1,5.3,12.1c0.7,2.2,0.9,3.2,0.5,4.2c-1.5,4.8-11.9,5-13.2,5"/>
	<path class="st25" d="M375,309.6c-1.6-1-0.4-4.2,0-12.3c0.4-8,0.7-12.8-1.4-18c-2.6-6.5-7.5-10.5-9.1-11.7
		c-1.2-0.9-4.3-2.4-10.5-5.3c-4.8-2.3-6.4-2.9-8.3-3.4c-3.5-0.8-6.5-1.6-9.5-0.2c-2.4,1.1-3.6,3.1-4.5,2.6c-0.9-0.5-1.1-3.2-1-3.5
		c0,0,0,0,0,0c-0.1-0.2-1.7-0.2-2.6,0.4c-1.3,0.8-0.6,2.4-1.8,5c-0.2,0.5-1.5,3.2-3,3.2c-1.7,0-1.9-5-3.2-5c-1,0-1,3.1-2.8,3.6
		c-1.3,0.4-2.9-0.8-3.6-2.2c-0.4-0.9-0.3-1.7,0-3.4c1.1-5.2,2.2-6.3,1.8-8.5c-0.3-1.4-0.8-1.1-2-3.6c-1.6-3.3-1-4.8-2.2-8.3
		c-0.8-2.6-2.7-6.7-4-6.5c-1.2,0.2-1.7,4.3-1.4,7.7c0.4,4.1,1.8,4.7,2.6,8.9c0.6,3.4-0.3,3.5-0.2,9.5c0.1,6.9,1.2,10.1,0,10.7
		c-1.2,0.6-3.4-1.8-4.4-3c-0.8-1-1.9-2.7-2.6-6.7c-0.4-2.4-0.3-3.2-0.4-9.1c-0.1-5.8-0.3-7.3-0.8-8.9c-0.5-1.9-1.8-5.5-2.6-5.3
		c-1.3,0.2-3.1,10.9,0.4,21.4c1.3,3.8,3.4,8,1.6,12.1c-0.1,0.3-1.2,2.7-2.4,2.6c-0.7-0.1-2-1.1-3.8-13.9c-1.4-10-0.9-12-1.6-16
		c-1.2-7-5.1-15.4-10.7-20c-11.5-9.4-25.3,1.1-64.5,0.8c-3.4,0-6.9-0.1-11.9,0.6c-5.3,0.8-13.1,1.8-21.5,6.5c-3,1.7-6.4,3.6-9.8,7.2
		c-4.8,5.1-4.7,7.7-10.9,15.8c-1.6,2-3.5,4.2-6.3,6.5c0,0-5.9,6.6-7.5,5.5c-0.9-0.6,0.7-3.2-0.4-6.7c-0.7-2.2-2.4-4.9-4-4.8
		c-2,0.2-1.3,4.9-4.8,8.7c-3.9,4.2-7.8,1.8-10.7,5.5c-0.5,0.7-0.7,1.6-1.3,3.2c-1.3,4.1-0.6,5.8-1.5,9.5c-0.7,3-2.2,6.1-2.8,5.9
		c-1.2-0.3,3-15-0.4-16.6c-2.1-1-7,5.2-7.5,4.8c-0.4-0.4,2.4-3.3,2.8-7.9c0-0.2,0.2-2.5-0.4-2.7c-0.8-0.2-1.8,4.4-5.9,7.3
		c-1.2,0.9-2.7,1.6-3,1.3c-0.5-0.6,5-5.7,4.8-5.9c-0.2-0.3-6,5.3-6.7,4.6c-0.6-0.5,1.8-4.2,3.6-6.5c1.7-2.2,3.4-3.9,5.8-6.3
		c1.3-1.3,2-2,2.8-2.7c3.2-2.9,5-3.4,9.6-6.2c6.2-3.8,5.8-4.7,9.4-6c3.9-1.5,6.7-1.4,6.7-2.1c0-0.7-3.2-1.6-6.3-1.1
		c-2.4,0.4-3.6,1.3-6.2,2.9c-4.7,2.8-9,5.2-14,5.2c-2,0-5.2-0.4-5.3-1.3c-0.3-2.3,16.9-6.2,16.6-7.4c-0.2-1-11.9,1.1-12.3-0.5
		c-0.3-1.3,7.4-3.6,7.1-5.3c-0.4-1.9-10.8-2.1-10.9-1.6c-0.1,0.5,12.3,4,15.8-0.5c2-2.5,0.1-6,1.9-7c2.6-1.5,7.5,6,12.6,4.6
		c2-0.5,3.8-2.4,4.3-4.4c0.9-3.8-3.3-6.6-8.3-13.8c-0.6-0.9-5-7-6.4-11.4c-4.8-14.4,13.4-34.3,15-33.3c1.8,1.1-13.5,28.6-11.8,29.5
		c1.1,0.6,20.2-37.4,23.8-35.9c1.3,0.5-0.6,5.3,1.4,6.7c4.7,3.3,23.1-16.4,24.5-15c1.2,1.1-11.2,14.7-9.1,17
		c0.6,0.7,2.5,0.4,8.4-2.7c13.2-6.8,22.6-15,22.8-14.7c0.3,0.4-12.1,11.7-11.1,13.1c1,1.3,13.6-8.1,17.4-4.8c1.6,1.4,0.3,3.7,2,5.1
		c2.9,2.5,10.5-1.4,14.6-4.4c9.9-7.1,14.2-19.4,13.4-19.8c-1-0.6-15.6,15.7-11.9,24.1c3.1,7.1,18.9-3.1,36.8,5.9
		c8.4,4.2,14.1,10.9,23.7,13.4c8,2.1,13.7,1.6,13.7,1.6c3-0.3,3.5-0.7,5.3-0.4c5.3,0.8,5.9,5.6,11.5,9.9c7.2,5.5,12.7,2.7,15.8,7.9
		c2.2,3.6,0.1,5.9,2.4,8.7c3.3,4,8.6,0.6,15.8,2.8c9.8,3,8.1,11.7,21,19c2.7,1.5,7.9,4.4,14.9,4.9c7.7,0.5,13.8-2.2,14.4-0.9
		c0.7,1.6-9.4,5.4-9.1,10.7c0.2,4.2,6.7,5.4,6.7,9.9c0,2.8-2.5,6.1-5.1,6.3c-5.2,0.4-7.3-11.7-13.9-11.9c-2.6-0.1-5.5,1.9-5.5,3.6
		c-0.1,3.6,12.4,4.1,15,11.9c0.1,0.4,1.3,4-0.4,5.9c-2.4,2.6-8.1-0.9-10.3,1.6c-1.5,1.7,1,3.9,0.8,9.5c-0.1,4.9-2,5.2-2.8,11.9
		c-0.5,4,0.1,4.7-0.8,6.7C381.5,307.8,376.9,310.7,375,309.6z"/>
	<path class="st25" d="M197,247.8"/>
	<path class="st25" d="M170.9,231.1c4.3,1.6,9.8,4.3,14.8,9c7.6,7.2,11,16.2,10.6,16.5c-0.9,0.6-22.4-33.7-21.5-34.3
		c0.5-0.4,19.5,25.8,20.3,25.2c0.5-0.3-5.8-10.3-17.3-28"/>
	<path class="st25" d="M187.4,362.3"/>
	<path class="st25" d="M197,216c14.5,20.9,22.1,31.2,22.7,30.9c0.6-0.4-6-11.7-19.8-34"/>
	<path class="st25" d="M216.8,216.6c14.6,20.7,21.6,31.3,21.1,31.6c-0.5,0.4-9.3-10.3-26.4-32.2"/>
</g>
<path class="st11" d="M-43.1,564.9"/>
<path class="st26" d="M-4.4,642c0,0,4.5-16.8,8.3-19.9c3.8-3.2-48.3-53.2-48.3-53.2"/>
</svg>
