<svg id="visual" viewBox="0 0 900 600" width="900" height="600" xmlns="http://www.w3.org/2000/svg" xmlns:xlink="http://www.w3.org/1999/xlink" version="1.1"><rect x="0" y="0" width="900" height="600" fill="#001220"></rect><path d="M0 442L21.5 442.3C43 442.7 86 443.3 128.8 441.2C171.7 439 214.3 434 257.2 424.7C300 415.3 343 401.7 385.8 395C428.7 388.3 471.3 388.7 514.2 396.5C557 404.3 600 419.7 642.8 426.3C685.7 433 728.3 431 771.2 428.2C814 425.3 857 421.7 878.5 419.8L900 418L900 601L878.5 601C857 601 814 601 771.2 601C728.3 601 685.7 601 642.8 601C600 601 557 601 514.2 601C471.3 601 428.7 601 385.8 601C343 601 300 601 257.2 601C214.3 601 171.7 601 128.8 601C86 601 43 601 21.5 601L0 601Z" fill="#005457"></path><path d="M0 404L21.5 408.3C43 412.7 86 421.3 128.8 424.5C171.7 427.7 214.3 425.3 257.2 422.8C300 420.3 343 417.7 385.8 425.7C428.7 433.7 471.3 452.3 514.2 450.8C557 449.3 600 427.7 642.8 427.2C685.7 426.7 728.3 447.3 771.2 455.8C814 464.3 857 460.7 878.5 458.8L900 457L900 601L878.5 601C857 601 814 601 771.2 601C728.3 601 685.7 601 642.8 601C600 601 557 601 514.2 601C471.3 601 428.7 601 385.8 601C343 601 300 601 257.2 601C214.3 601 171.7 601 128.8 601C86 601 43 601 21.5 601L0 601Z" fill="#146e75"></path><path d="M0 493L21.5 484C43 475 86 457 128.8 453.5C171.7 450 214.3 461 257.2 466.5C300 472 343 472 385.8 469.2C428.7 466.3 471.3 460.7 514.2 461.5C557 462.3 600 469.7 642.8 474.2C685.7 478.7 728.3 480.3 771.2 478.2C814 476 857 470 878.5 467L900 464L900 601L878.5 601C857 601 814 601 771.2 601C728.3 601 685.7 601 642.8 601C600 601 557 601 514.2 601C471.3 601 428.7 601 385.8 601C343 601 300 601 257.2 601C214.3 601 171.7 601 128.8 601C86 601 43 601 21.5 601L0 601Z" fill="#268a94"></path><path d="M0 535L21.5 525.8C43 516.7 86 498.3 128.8 498.2C171.7 498 214.3 516 257.2 523C300 530 343 526 385.8 522C428.7 518 471.3 514 514.2 516.3C557 518.7 600 527.3 642.8 527C685.7 526.7 728.3 517.3 771.2 512.7C814 508 857 508 878.5 508L900 508L900 601L878.5 601C857 601 814 601 771.2 601C728.3 601 685.7 601 642.8 601C600 601 557 601 514.2 601C471.3 601 428.7 601 385.8 601C343 601 300 601 257.2 601C214.3 601 171.7 601 128.8 601C86 601 43 601 21.5 601L0 601Z" fill="#38a6b6"></path><path d="M0 571L21.5 564.8C43 558.7 86 546.3 128.8 544.2C171.7 542 214.3 550 257.2 556.2C300 562.3 343 566.7 385.8 564C428.7 561.3 471.3 551.7 514.2 549.3C557 547 600 552 642.8 551.3C685.7 550.7 728.3 544.3 771.2 544.2C814 544 857 550 878.5 553L900 556L900 601L878.5 601C857 601 814 601 771.2 601C728.3 601 685.7 601 642.8 601C600 601 557 601 514.2 601C471.3 601 428.7 601 385.8 601C343 601 300 601 257.2 601C214.3 601 171.7 601 128.8 601C86 601 43 601 21.5 601L0 601Z" fill="#4cc3d9"></path></svg>