<?xml version="1.0" encoding="utf-8"?>
<!-- Generator: Adobe Illustrator 24.1.2, SVG Export Plug-In . SVG Version: 6.00 Build 0)  -->
<svg version="1.1" xmlns="http://www.w3.org/2000/svg" xmlns:xlink="http://www.w3.org/1999/xlink" x="0px" y="0px"
	 viewBox="0 0 185.1 71.1" style="enable-background:new 0 0 185.1 71.1;" xml:space="preserve">
<style type="text/css">
	.st0{display:none;}
	.st1{fill:#59382B;}
	.st2{fill:none;}
	.st3{font-family:'Georgia';}
	.st4{font-size:50px;}
	.st5{fill:#228C22;}
	.st6{fill:#109E10;}
	.st7{fill:#1FAA1F;}
	.st8{fill:#12D612;}
</style>
<g id="Layer_1" class="st0">
	
		<image style="display:inline;overflow:visible;" width="800" height="1089" xlink:href="../redwood.jpg"  transform="matrix(1 0 0 1 -1627.0769 -1261.2197)">
	</image>
</g>
<g id="Tree_base">
	<path class="st1" d="M140.1,70.8c0,0,5.9-5.7,5-6.1c-0.9-0.4,3.4-27.1,2.9-27.6c-0.5-0.4,3.5-28.2,3.5-28.2l1.9-3.2l2.2,1.1
		c0,0-4,57.9,1.5,59.8c5,1.7,3.9,3.3,5.7,3.6c0.1,0,0.6,0,0.6,0c0.1,0.1-4.9,0.6-8.5,0.8C152,71.1,146.9,71.2,140.1,70.8z"/>
	<rect x="-3.7" y="32.4" class="st2" width="173" height="74.1"/>
	<text transform="matrix(1 0 0 1 -3.697 70.2399)" class="st1 st3 st4">Timbo</text>
</g>
<g id="Tree_Leafs">
	<polygon class="st5" points="154.7,21.8 162.2,25.5 162.4,24.1 	"/>
	<polygon class="st6" points="153.3,9.2 125.4,17.7 140.6,15.5 137.2,17.9 147,15.9 144.8,18.4 151.2,15.2 147.5,19.9 155.5,15.9 
		161,19.9 159,15.1 164.6,18.3 162.9,14.9 171.9,19.5 165.5,15.1 179.5,18.3 	"/>
	<polygon class="st7" points="151.5,18.1 123.6,26.6 138.8,24.4 135.4,26.8 145.2,24.8 143,27.3 153.2,24.9 153.7,24.8 157.2,24 
		162.8,27.2 163.7,24 177.7,27.2 	"/>
	<polygon class="st8" points="153.5,4.8 129.7,13.3 142.7,11.1 148.1,11.5 151.8,10.7 155.4,11.4 158.4,10.6 163.2,13.9 161.8,10.5 
		169.5,15 164,10.6 176,13.8 	"/>
	<polygon class="st5" points="152.4,15 124.5,21.9 139.7,20.1 136.3,22.1 146,20.5 143.9,22.5 150.3,19.8 146.6,23.6 154.6,20.4 
		160.1,23.6 158,19.8 163.7,22.4 162,19.7 171,23.3 164.6,19.8 178.6,22.4 	"/>
</g>
</svg>
