<svg width="450" height="180" viewBox="0 0 450 180" fill="none" xmlns="http://www.w3.org/2000/svg">
<g filter="url(#filter0_d_6_19)">
<path d="M60.8291 153.766V170.641H19.0635V153.766H26.751V112.562H20.1416L18.126 125.406H4.9541V96.0625H75.126V125.406H62.001L59.9854 112.562H53.1416V153.766H60.8291Z" fill="#291800"/>
<path d="M120.328 154.141V170.641H81.3754V154.141H88.8754V112.562H81.3754V96.0625H120.328V112.562H112.875V154.141H120.328Z" fill="#291800"/>
<path d="M154.609 154.141V170.641H123.109V154.141H132.156V112.562H123.109V96.0625H163.328L177.812 131.969L192.156 96.0625H229.656V112.562H220.656V154.141H229.656V170.641H190.609V154.141H196.656V126.297L180.156 170.641H166.609L147.109 125.219V154.141H154.609Z" fill="#291800"/>
<path d="M272.983 170.641H230.937V154.141H239.983V112.562H232.202V95.9688H270.312C276.499 95.9688 281.78 96.4688 286.155 97.4688C290.437 98.5 293.843 100.469 296.374 103.375C298.905 106.25 300.171 110.328 300.171 115.609C300.171 119.328 299.093 122.562 296.937 125.312C294.78 128.062 292.046 130.047 288.733 131.266C293.077 133.141 296.28 135.562 298.343 138.531C300.437 141.5 301.483 145.578 301.483 150.766C301.483 157.109 298.999 162.016 294.03 165.484C289.093 168.922 282.077 170.641 272.983 170.641ZM263.983 112.562V126.109H266.562C270.124 126.109 272.749 125.609 274.437 124.609C276.155 123.609 277.015 121.734 277.015 118.984C277.015 117.078 276.421 115.531 275.233 114.344C274.046 113.156 272.499 112.562 270.593 112.562H263.983ZM263.983 138.391V154.141H265.671C269.452 154.141 272.358 153.609 274.39 152.547C276.452 151.484 277.483 149.297 277.483 145.984C277.483 140.859 274.358 138.297 268.108 138.297C267.421 138.297 266.733 138.312 266.046 138.344C265.358 138.344 264.671 138.359 263.983 138.391Z" fill="#291800"/>
<path d="M344.061 172C336.28 172 329.545 170.328 323.858 166.984C318.202 163.641 313.889 159.047 310.92 153.203C307.983 147.359 306.514 140.688 306.514 133.188C306.514 125.406 307.983 118.625 310.92 112.844C313.858 107.031 318.139 102.547 323.764 99.3906C329.42 96.2031 336.186 94.6094 344.061 94.6094C351.905 94.6094 358.655 96.1875 364.311 99.3438C369.936 102.531 374.217 107.031 377.155 112.844C380.123 118.656 381.608 125.438 381.608 133.188C381.608 140.688 380.139 147.359 377.202 153.203C374.264 159.047 369.952 163.641 364.264 166.984C358.608 170.328 351.873 172 344.061 172ZM344.061 155.359C347.436 155.359 350.014 153.312 351.795 149.219C353.608 145.125 354.514 139.656 354.514 132.812C354.514 126.156 353.639 120.891 351.889 117.016C350.17 113.141 347.561 111.203 344.061 111.203C340.53 111.203 337.905 113.141 336.186 117.016C334.467 120.891 333.608 126.156 333.608 132.812C333.608 139.656 334.498 145.125 336.28 149.219C338.061 153.312 340.655 155.359 344.061 155.359Z" fill="#291800"/>
<path d="M396.046 32.1406H404.272L408.906 46.0841L415.046 73.6406L418.174 106.45V162.141C418.174 162.141 418.735 164.639 428.246 165.319C429.618 165.417 438.095 167.642 445.046 168.141L442.081 170.142L436.709 170.641H390.371L383.42 170.142H361.046L371.916 167.141L383.42 162.141V109.942L385.752 77.1406L393.546 46.0841L396.046 32.1406Z" fill="#291800"/>
<path d="M402.531 35.6406L428.531 57.6406H376.531L402.531 35.6406Z" fill="#128200"/>
<path d="M399.416 38.6692L431.273 54.1075L367.531 54.0504L399.416 38.6692Z" fill="#0D5F00"/>
<path d="M398.106 25.4694L428.827 44.3188L371.678 49.9764L398.106 25.4694Z" fill="#138600"/>
<path d="M399.175 12.2225L431.44 36.9093L370.594 41.095L399.175 12.2225Z" fill="#117500"/>
<path d="M400.985 0.640625L422.97 22.9308H379L400.985 0.640625Z" fill="#1CC500"/>
</g>
<defs>
<filter id="filter0_d_6_19" x="0.954102" y="0.640625" width="448.091" height="179.359" filterUnits="userSpaceOnUse" color-interpolation-filters="sRGB">
<feFlood flood-opacity="0" result="BackgroundImageFix"/>
<feColorMatrix in="SourceAlpha" type="matrix" values="0 0 0 0 0 0 0 0 0 0 0 0 0 0 0 0 0 0 127 0" result="hardAlpha"/>
<feOffset dy="4"/>
<feGaussianBlur stdDeviation="2"/>
<feComposite in2="hardAlpha" operator="out"/>
<feColorMatrix type="matrix" values="0 0 0 0 0 0 0 0 0 0 0 0 0 0 0 0 0 0 0.25 0"/>
<feBlend mode="normal" in2="BackgroundImageFix" result="effect1_dropShadow_6_19"/>
<feBlend mode="normal" in="SourceGraphic" in2="effect1_dropShadow_6_19" result="shape"/>
</filter>
</defs>
</svg>
