<svg id="visual" viewBox="0 0 1920 1080" width="1920" height="1080" xmlns="http://www.w3.org/2000/svg" xmlns:xlink="http://www.w3.org/1999/xlink" version="1.1"><rect x="0" y="0" width="1920" height="1080" fill="#0f172a"></rect><path d="M0 646L80 585.3C160 524.7 320 403.3 480 467.7C640 532 800 782 960 840.5C1120 899 1280 766 1440 615C1600 464 1760 295 1840 210.5L1920 126L1920 1081L1840 1081C1760 1081 1600 1081 1440 1081C1280 1081 1120 1081 960 1081C800 1081 640 1081 480 1081C320 1081 160 1081 80 1081L0 1081Z" fill="#020617" stroke-linecap="round" stroke-linejoin="miter"></path></svg>