<svg id="visual" viewBox="0 0 900 600" width="900" height="600" xmlns="http://www.w3.org/2000/svg" xmlns:xlink="http://www.w3.org/1999/xlink" version="1.1"><path d="M0 181L82 193L164 223L245 193L327 205L409 133L491 247L573 229L655 259L736 211L818 277L900 217L900 0L818 0L736 0L655 0L573 0L491 0L409 0L327 0L245 0L164 0L82 0L0 0Z" fill="#14b8a6"></path><path d="M0 331L82 391L164 325L245 349L327 397L409 271L491 385L573 367L655 367L736 373L818 391L900 319L900 215L818 275L736 209L655 257L573 227L491 245L409 131L327 203L245 191L164 221L82 191L0 179Z" fill="#14b8a6"></path><path d="M0 445L82 445L164 481L245 445L327 481L409 415L491 445L573 439L655 511L736 427L818 457L900 385L900 317L818 389L736 371L655 365L573 365L491 383L409 269L327 395L245 347L164 323L82 389L0 329Z" fill="#00a784"></path><path d="M0 541L82 541L164 565L245 547L327 553L409 505L491 529L573 541L655 565L736 535L818 505L900 499L900 383L818 455L736 425L655 509L573 437L491 443L409 413L327 479L245 443L164 479L82 443L0 443Z" fill="#00957c"></path><path d="M0 601L82 601L164 601L245 601L327 601L409 601L491 601L573 601L655 601L736 601L818 601L900 601L900 497L818 503L736 533L655 563L573 539L491 527L409 503L327 551L245 545L164 563L82 539L0 539Z" fill="#038373"></path></svg>