<?xml version="1.0" standalone="no"?><svg xmlns="http://www.w3.org/2000/svg" viewBox="0 0 1440 320"><path fill=" #0f766e" fill-opacity="1" d="M0,128L6.2,128C12.3,128,25,128,37,112C49.2,96,62,64,74,64C86.2,64,98,96,111,96C123.1,96,135,64,148,64C160,64,172,96,185,144C196.9,192,209,256,222,245.3C233.8,235,246,149,258,122.7C270.8,96,283,128,295,144C307.7,160,320,160,332,160C344.6,160,357,160,369,181.3C381.5,203,394,245,406,266.7C418.5,288,431,288,443,293.3C455.4,299,468,309,480,293.3C492.3,277,505,235,517,192C529.2,149,542,107,554,117.3C566.2,128,578,192,591,218.7C603.1,245,615,235,628,213.3C640,192,652,160,665,133.3C676.9,107,689,85,702,85.3C713.8,85,726,107,738,128C750.8,149,763,171,775,176C787.7,181,800,171,812,186.7C824.6,203,837,245,849,272C861.5,299,874,309,886,272C898.5,235,911,149,923,96C935.4,43,948,21,960,48C972.3,75,985,149,997,154.7C1009.2,160,1022,96,1034,106.7C1046.2,117,1058,203,1071,202.7C1083.1,203,1095,117,1108,69.3C1120,21,1132,11,1145,5.3C1156.9,0,1169,0,1182,37.3C1193.8,75,1206,149,1218,202.7C1230.8,256,1243,288,1255,256C1267.7,224,1280,128,1292,85.3C1304.6,43,1317,53,1329,58.7C1341.5,64,1354,64,1366,64C1378.5,64,1391,64,1403,101.3C1415.4,139,1428,213,1434,250.7L1440,288L1440,0L1433.8,0C1427.7,0,1415,0,1403,0C1390.8,0,1378,0,1366,0C1353.8,0,1342,0,1329,0C1316.9,0,1305,0,1292,0C1280,0,1268,0,1255,0C1243.1,0,1231,0,1218,0C1206.2,0,1194,0,1182,0C1169.2,0,1157,0,1145,0C1132.3,0,1120,0,1108,0C1095.4,0,1083,0,1071,0C1058.5,0,1046,0,1034,0C1021.5,0,1009,0,997,0C984.6,0,972,0,960,0C947.7,0,935,0,923,0C910.8,0,898,0,886,0C873.8,0,862,0,849,0C836.9,0,825,0,812,0C800,0,788,0,775,0C763.1,0,751,0,738,0C726.2,0,714,0,702,0C689.2,0,677,0,665,0C652.3,0,640,0,628,0C615.4,0,603,0,591,0C578.5,0,566,0,554,0C541.5,0,529,0,517,0C504.6,0,492,0,480,0C467.7,0,455,0,443,0C430.8,0,418,0,406,0C393.8,0,382,0,369,0C356.9,0,345,0,332,0C320,0,308,0,295,0C283.1,0,271,0,258,0C246.2,0,234,0,222,0C209.2,0,197,0,185,0C172.3,0,160,0,148,0C135.4,0,123,0,111,0C98.5,0,86,0,74,0C61.5,0,49,0,37,0C24.6,0,12,0,6,0L0,0Z"></path></svg>